<svg xmlns="http://www.w3.org/2000/svg" xmlns:xlink="http://www.w3.org/1999/xlink" version="1.1" width="256" height="256" viewBox="0 0 256 256" xml:space="preserve">

<defs>
</defs>
<g style="stroke: none; stroke-width: 0; stroke-dasharray: none; stroke-linecap: butt; stroke-linejoin: miter; stroke-miterlimit: 10; fill: none; fill-rule: nonzero; opacity: 1;" transform="translate(67.43657587548638 67.43657587548635) scale(1.33 1.33)" >
	<path d="M 80.238 81.34 H 9.761 C 4.379 81.34 0 76.929 0 71.507 V 30.976 c 0 -5.422 4.379 -9.833 9.761 -9.833 h 4.769 c 0.833 0 1.65 -0.145 2.43 -0.43 c 1.657 -0.606 3.028 -1.804 3.859 -3.372 l 1.439 -2.715 c 1.952 -3.68 5.736 -5.965 9.876 -5.965 h 25.732 c 4.141 0 7.925 2.286 9.876 5.965 l 1.439 2.715 c 1.243 2.345 3.653 3.802 6.288 3.802 h 4.769 c 5.383 0 9.762 4.411 9.762 9.833 v 40.531 c 0 3.296 -1.627 6.356 -4.353 8.187 C 84.044 80.771 82.173 81.34 80.238 81.34 z M 9.761 23.143 C 5.481 23.143 2 26.656 2 30.976 v 40.531 c 0 4.319 3.481 7.833 7.761 7.833 h 70.477 c 1.536 0 3.021 -0.452 4.294 -1.307 C 86.704 76.575 88 74.136 88 71.507 V 30.976 c 0 -4.319 -3.481 -7.833 -7.762 -7.833 H 75.47 c -3.377 0 -6.464 -1.864 -8.056 -4.865 v 0 l -1.439 -2.715 c -1.603 -3.023 -4.71 -4.902 -8.108 -4.902 H 32.134 c -3.398 0 -6.506 1.878 -8.109 4.902 l -1.439 2.715 c -1.063 2.005 -2.817 3.537 -4.938 4.313 c -1.001 0.367 -2.05 0.552 -3.117 0.552 H 9.761 z" style="stroke: none; stroke-width: 1; stroke-dasharray: none; stroke-linecap: butt; stroke-linejoin: miter; stroke-miterlimit: 10; fill: rgb(255,255,255); fill-rule: nonzero; opacity: 1;" transform=" matrix(1 0 0 1 0 0) " stroke-linecap="round" />
	<path d="M 45 70.527 c -11.469 0 -20.799 -9.403 -20.799 -20.961 c 0 -5.598 2.163 -10.861 6.089 -14.819 c 2.008 -2.025 4.357 -3.588 6.982 -4.647 c 2.458 -0.992 5.058 -1.495 7.728 -1.495 c 11.469 0 20.799 9.403 20.799 20.961 c 0 2.69 -0.499 5.31 -1.481 7.784 c -1.049 2.643 -2.6 5.01 -4.607 7.034 C 55.781 68.346 50.557 70.527 45 70.527 z M 45 30.605 c -2.412 0 -4.761 0.454 -6.98 1.35 c -2.371 0.957 -4.494 2.371 -6.31 4.201 c -3.553 3.582 -5.509 8.344 -5.509 13.411 c 0 10.455 8.433 18.961 18.799 18.961 c 5.02 0 9.739 -1.972 13.29 -5.551 c 1.816 -1.832 3.22 -3.974 4.168 -6.364 c 0.89 -2.238 1.341 -4.609 1.341 -7.046 C 63.799 39.111 55.365 30.605 45 30.605 z" style="stroke: none; stroke-width: 1; stroke-dasharray: none; stroke-linecap: butt; stroke-linejoin: miter; stroke-miterlimit: 10; fill: rgb(255,255,255); fill-rule: nonzero; opacity: 1;" transform=" matrix(1 0 0 1 0 0) " stroke-linecap="round" />
	<path d="M 75.887 37.903 c -2.376 0 -4.309 -1.945 -4.309 -4.336 s 1.933 -4.336 4.309 -4.336 s 4.31 1.945 4.31 4.336 S 78.263 37.903 75.887 37.903 z M 75.887 31.23 c -1.273 0 -2.309 1.048 -2.309 2.336 s 1.035 2.336 2.309 2.336 s 2.31 -1.048 2.31 -2.336 S 77.16 31.23 75.887 31.23 z" style="stroke: none; stroke-width: 1; stroke-dasharray: none; stroke-linecap: butt; stroke-linejoin: miter; stroke-miterlimit: 10; fill: rgb(255,255,255); fill-rule: nonzero; opacity: 1;" transform=" matrix(1 0 0 1 0 0) " stroke-linecap="round" />
</g>
</svg>