<svg xmlns="http://www.w3.org/2000/svg" xmlns:xlink="http://www.w3.org/1999/xlink" version="1.1" width="256" height="256" viewBox="0 0 256 256" xml:space="preserve">

<defs>
</defs>
<g style="stroke: none; stroke-width: 0; stroke-dasharray: none; stroke-linecap: butt; stroke-linejoin: miter; stroke-miterlimit: 10; fill: rgb(34,41,51); fill-rule: nonzero; opacity: 1;" transform="translate(0 0) scale(2.81 2.81)" >
	<rect x="0" y="0" rx="0" ry="0" width="90" height="90" style="stroke: none; stroke-width: 1; stroke-dasharray: none; stroke-linecap: butt; stroke-linejoin: miter; stroke-miterlimit: 10; fill: rgb(34,41,51); fill-rule: nonzero; opacity: 1;" transform=" matrix(1 0 0 1 0 0) "/>
</g>
<g style="stroke: none; stroke-width: 0; stroke-dasharray: none; stroke-linecap: butt; stroke-linejoin: miter; stroke-miterlimit: 10; fill: none; fill-rule: nonzero; opacity: 1;" transform="translate(1.6034642746674876 1.6034642746674876) scale(2.81 2.81)" >
	<path d="M 45 -0.228 c -24.853 0 -45 20.25 -45 45.229 c 0 22.806 16.797 41.66 38.633 44.77 V 58.779 h -10.64 V 46.328 h 10.64 v -9.182 c 0 -10.656 6.441 -16.458 15.849 -16.458 c 4.506 0 8.38 0.339 9.508 0.491 v 11.136 l -6.525 0.003 c -5.116 0 -6.107 2.457 -6.107 6.061 v 7.949 h 12.202 l -1.589 12.451 H 51.359 v 30.993 C 73.199 86.666 90 67.81 90 45.001 C 90 20.022 69.853 -0.228 45 -0.228 z" style="stroke: none; stroke-width: 1; stroke-dasharray: none; stroke-linecap: butt; stroke-linejoin: miter; stroke-miterlimit: 10; fill: rgb(255,255,255); fill-rule: nonzero; opacity: 1;" transform=" matrix(1 0 0 1 0 0) " stroke-linecap="round" />
</g>
</svg>