<?xml version="1.0" encoding="UTF-8"?>
<svg width="408px" height="113px" viewBox="0 0 408 113" version="1.1" xmlns="http://www.w3.org/2000/svg" xmlns:xlink="http://www.w3.org/1999/xlink">
    <!-- Generator: Sketch 57.1 (83088) - https://sketch.com -->
    <title>Logo/Chope/LightBackground</title>
    <desc>Created with Sketch.</desc>
    <g id="Logo" stroke="none" stroke-width="1" fill="none" fill-rule="evenodd">
        <g transform="translate(-847.000000, -503.000000)" id="Stacked-Group">
            <g transform="translate(847.000000, 503.000000)">
                <g id="Logo/Chope/LightBackground">
                    <g id="Stamp" stroke-width="1" transform="translate(0.000320, 0.379920)">
                        <path d="M92.4015945,46.2943972 C92.4015945,39.6863976 88.7647947,33.931198 83.386395,30.9111982 C83.847195,29.3383983 84.097595,27.6759984 84.097595,25.9535985 C84.097595,16.214399 76.2031955,8.3191995 66.463196,8.3191995 C64.7735961,8.3191995 63.1407962,8.56239949 61.5927963,9.00719946 C58.5711965,3.63279978 52.8183969,0 46.2143972,0 C39.6055976,0 33.850398,3.63759978 30.8295982,9.01679946 C29.2711983,8.56639949 27.6247984,8.3191995 25.9207985,8.3191995 C16.182399,8.3191995 8.28639951,16.214399 8.28639951,25.9535985 C8.28639951,27.6783984 8.53919949,29.3439983 9,30.9191982 C3.62959978,33.941598 -2.13162821e-14,39.6919976 -2.13162821e-14,46.2943972 C-2.13162821e-14,52.8871968 3.61999978,58.6319965 8.98079946,61.6575963 C8.56159949,63.1631962 8.3335995,64.7471961 8.3335995,66.386396 C8.3335995,76.1255955 16.228799,84.020795 25.9679985,84.020795 C27.6071984,84.020795 29.1927983,83.792795 30.6991982,83.374395 C33.682398,88.8807947 39.5111976,92.6207945 46.2143972,92.6207945 C52.9183968,92.6207945 58.7471965,88.8799947 61.7303963,83.373595 C63.2367962,83.791995 64.8231961,84.020795 66.463196,84.020795 C76.2031955,84.020795 84.097595,76.1255955 84.097595,66.386396 C84.097595,64.7423961 83.867995,63.1519962 83.447195,61.6423963 C88.7919947,58.6127965 92.4015945,52.8767968 92.4015945,46.2943972" id="Fill-1" fill="#FFCF01"></path>
                        <path d="M62.9289562,59.0873565 C61.8585563,58.3089565 60.8033564,58.0577565 60.8033564,58.0577565 C59.1361565,61.8369563 54.1585568,66.374556 49.521757,66.522556 C41.9449575,66.764956 39.1137577,58.2161565 39.9689576,44.9009573 C40.7601576,32.5865581 46.5665572,21.4721587 53.9281568,21.5825587 C51.6201569,24.2193586 50.160157,26.9937584 50.003357,30.4457582 C49.782557,35.2801579 52.9393568,39.4921576 57.9713565,38.7961577 C61.9977563,38.2385577 65.3089561,34.243358 65.2756096,29.1281583 C65.2593561,26.6873584 64.5561562,24.6593585 63.4281562,23.0521586 C62.2953563,21.4377587 60.7329564,20.2497588 58.8177565,19.4993588 C55.8545567,18.3369589 51.6753569,18.0297589 46.9649572,19.3465588 C35.0649579,22.6745586 25.1361585,34.208158 24.6113585,49.4457571 C24.1161586,63.7841562 34.245758,73.0145556 46.9737572,71.7865557 C53.2841568,71.1769558 60.0009564,68.0017559 63.3625562,63.1921562 C64.1233562,62.1041563 64.8569561,60.4889564 62.9289562,59.0873565" id="Fill-3" fill="#FFFFFF"></path>
                    </g>
                    <path d="M254.356625,55.1251167 C254.137425,71.8811157 250.608625,83.0059151 243.152626,84.059515 C235.357426,85.1611149 232.269426,75.5915155 232.499826,58.0107165 C232.723026,40.9283176 236.075026,30.4307182 243.870225,29.3291183 C251.495825,28.2507183 254.567025,39.0675177 254.356625,55.1251167 M324.167821,11.0195193 C332.05102,9.94351941 338.48302,13.1611192 342.10462,20.0323188 C344.651019,24.8643185 345.771819,31.5035181 345.187019,39.7267176 C343.83662,58.7219165 328.31982,79.7211152 307.387822,73.8851156 L307.387822,73.8851156 L307.531822,71.3483157 C316.411821,71.0947158 322.927021,58.2595165 323.620621,41.5035175 C324.276621,25.6459185 320.602221,20.9987187 316.031821,21.3331187 C310.446221,21.7419187 304.597422,33.102718 304.597422,48.9875171 C304.597422,48.9875171 303.836622,82.4867151 303.582222,89.0835147 C303.328622,95.6803143 301.189422,99.2323141 296.368622,100.246714 C291.547823,101.261914 282.921423,102.784314 282.921423,102.784314 L282.921423,102.784314 L284.824623,37.2403178 C284.963023,32.5419181 284.262223,29.3875182 281.091023,29.5139182 C278.040623,29.6363182 274.953424,35.9939179 273.321424,39.9555176 C274.994224,43.6299174 275.923024,47.9147171 275.923024,52.7419169 C275.923024,71.2923158 261.139824,85.7419149 243.356625,87.9091148 C232.339026,89.2523147 222.757427,85.5331149 217.059027,78.1163153 C214.079827,85.5139149 207.339828,95.3947143 197.123828,96.0131143 C184.945429,96.5211142 182.662229,84.723515 182.551829,78.9139153 C182.475029,74.8523155 182.796629,68.9931159 183.042229,64.8067161 C183.296629,60.4939164 183.423029,57.9563165 183.170229,54.9115167 C182.777429,50.207517 179.829429,48.0195171 176.209429,48.6963171 C172.63983,49.4571171 169.72063,52.4371169 167.73583,56.1387167 C164.89663,61.4315163 164.41263,67.670716 164.26783,72.1643157 C164.01423,80.0299152 163.74703,88.1843147 163.61983,93.0051145 C163.49343,97.8259142 161.22303,100.743514 157.163831,101.505114 C153.104631,102.265914 143.255831,103.991514 143.255831,103.991514 C143.255831,103.991514 144.590231,44.0347174 144.985431,35.9259179 C145.323831,28.9907183 142.871831,27.1299184 140.249432,26.5387184 C137.443832,25.9051185 133.991032,27.1299184 131.157432,29.5763182 C130.153432,30.4435182 129.364632,31.2699181 128.760632,31.9955181 C133.890232,34.028318 137.845432,38.9387177 137.894232,46.2875172 C137.944632,54.1627168 133.379032,60.4315164 127.222232,61.5491163 C120.483833,62.7747163 115.131033,57.0331166 115.101433,48.9699171 C115.082233,43.8491174 116.651033,39.2203177 119.656633,35.0539179 C108.567834,35.6579179 100.559834,52.3483169 99.3654341,70.9475158 C98.0486342,91.4467145 102.406234,104.607514 114.071033,104.234714 C121.209433,104.006714 128.871832,97.0203142 131.439032,91.2035146 C131.439032,91.2035146 133.063832,91.5891145 134.710232,92.7867145 C137.679032,94.9459143 136.549432,97.4331142 135.379032,99.1075141 C130.203832,106.509914 119.864633,111.399513 110.148633,112.337113 C90.5542346,114.229113 75.4806355,100.029914 75.7214355,77.9443154 C75.9734355,54.7835167 91.8150345,36.7315178 110.135833,31.6083181 C115.047833,30.2347182 119.564633,30.0619182 123.399833,30.6139182 C124.361433,29.3795182 125.424633,28.2059183 126.464632,27.1667184 C132.045432,21.5843187 139.909432,17.107519 149.138231,17.144319 C153.781431,17.163519 158.489431,18.6707189 161.33343,22.2251187 C163.36303,24.7619185 164.28783,28.6875183 164.13743,34.6819179 C163.75583,49.777917 163.29103,56.2227166 163.29103,56.2227166 C163.29103,56.2227166 165.95823,48.2723171 172.97823,41.9299175 C177.098229,38.2091177 182.970229,35.0123179 189.618229,35.2491179 C196.743028,35.5027179 200.548628,38.8011177 202.578228,43.7483174 C204.671828,48.8491171 203.991828,56.1811167 203.720628,62.1427163 C203.467028,67.724316 203.212628,71.5979157 203.086228,75.9107155 C202.947828,80.6091152 203.720628,83.835515 206.891828,83.709115 C209.899827,83.588315 212.907827,77.8043154 214.535827,74.0883156 C212.603027,70.2411158 211.523027,65.7027161 211.523027,60.5907164 C211.523027,42.0235175 226.305427,27.5891184 244.088625,25.4219185 C255.443825,24.0387186 265.270224,27.8899183 270.895024,35.7531179 C274.070224,27.9523183 281.373423,16.976319 291.218223,16.993919 C301.570222,16.718719 303.628622,26.2795184 303.058222,32.7155181 C303.058222,32.7155181 304.501422,26.2083184 309.291022,19.9379188 C313.239821,14.7691191 318.975021,11.7275193 324.167821,11.0195193 Z M370.547178,4.45015973 C370.543178,4.45015973 379.902377,-0.891439947 391.738377,0.130159992 C393.775177,0.258959985 395.933576,0.593359965 397.987176,1.26615992 C398.019176,1.27575992 398.051176,1.28295992 398.083976,1.29255992 C402.634376,2.81495983 406.639176,6.04295964 407.451976,12.5733593 C407.618376,13.9125592 407.607176,15.2725591 407.403976,16.606959 C406.357576,23.4765586 400.600776,28.6581583 394.856776,32.0949581 C390.970377,34.4197579 386.741577,36.1333578 382.467977,37.6637578 C379.182377,38.8397577 375.836778,39.9181576 372.375978,40.4077576 C372.508778,46.0997573 373.595178,55.3045567 380.821577,56.2941566 C382.934377,56.5829566 385.263977,56.1813567 387.606377,55.1885567 C389.887177,54.2301568 392.163177,52.8661568 394.284776,51.078957 C395.555976,50.007757 396.554376,49.0085571 397.307976,48.1717571 L397.307976,48.1717571 L397.307976,48.1333571 C397.653576,47.7437572 397.999176,47.3525572 398.327976,46.9333572 C400.137576,44.6317573 401.183976,42.6973575 401.635976,41.6653575 C401.635976,41.6653575 402.812776,41.7389575 404.080776,42.3901575 C405.731176,43.2365574 405.825576,45.0461573 405.023176,46.5725572 C404.306376,47.9365571 403.524776,49.1485571 401.786376,51.163757 C401.382376,51.6325569 400.931976,52.1125569 400.460776,52.5957569 C399.598376,53.5805568 398.596776,54.5309567 396.799976,55.9117567 C394.456776,57.7133566 391.312777,59.5653564 387.606377,60.9901564 C385.039177,61.9765563 382.210377,62.7637563 379.155977,63.1629562 C362.295978,65.3645561 348.102379,54.2797568 348.964779,36.2029578 C349.610379,22.6581586 358.347979,10.5333594 370.547178,4.45015973 Z M390.159177,16.473359 C390.734377,7.73655954 387.615977,3.95575976 383.684777,4.20375975 C377.774377,4.57735973 372.884778,15.4845591 372.150378,33.714158 C372.109578,34.7301579 372.110378,35.4845579 372.164778,36.3005578 C383.875977,34.5301579 389.552777,25.6821585 390.159177,16.473359 Z" id="Fill-5" fill="#10024A"></path>
                </g>
            </g>
        </g>
    </g>
</svg>